<!DOCTYPE svg PUBLIC "-//W3C//DTD SVG 1.1//EN" "http://www.w3.org/Graphics/SVG/1.1/DTD/svg11.dtd">
<svg xmlns="http://www.w3.org/2000/svg" xmlns:xlink="http://www.w3.org/1999/xlink" version="1.1" width="521px" height="221px" viewBox="-0.5 -0.5 521 221"><defs/><g><path d="M 75 120 Q 75 140 75 158.63" fill="none" stroke="#000000" stroke-miterlimit="10" pointer-events="none"/><path d="M 75 163.88 L 71.5 156.88 L 75 158.63 L 78.5 156.88 Z" fill="#000000" stroke="#000000" stroke-miterlimit="10" pointer-events="none"/><path d="M 170 120 Q 170 140 170 158.63" fill="none" stroke="#000000" stroke-miterlimit="10" pointer-events="none"/><path d="M 170 163.88 L 166.5 156.88 L 170 158.63 L 173.5 156.88 Z" fill="#000000" stroke="#000000" stroke-miterlimit="10" pointer-events="none"/><path d="M 205 120 Q 205 140 205 158.63" fill="none" stroke="#000000" stroke-miterlimit="10" pointer-events="none"/><path d="M 205 163.88 L 201.5 156.88 L 205 158.63 L 208.5 156.88 Z" fill="#000000" stroke="#000000" stroke-miterlimit="10" pointer-events="none"/><path d="M 240 120 Q 240 140 240 158.63" fill="none" stroke="#000000" stroke-miterlimit="10" pointer-events="none"/><path d="M 240 163.88 L 236.5 156.88 L 240 158.63 L 243.5 156.88 Z" fill="#000000" stroke="#000000" stroke-miterlimit="10" pointer-events="none"/><path d="M 100 120 Q 100 135 100 158.63" fill="none" stroke="#000000" stroke-miterlimit="10" pointer-events="none"/><path d="M 100 163.88 L 96.5 156.88 L 100 158.63 L 103.5 156.88 Z" fill="#000000" stroke="#000000" stroke-miterlimit="10" pointer-events="none"/><path d="M 270 120 Q 270 130 270 158.63" fill="none" stroke="#000000" stroke-miterlimit="10" pointer-events="none"/><path d="M 270 163.88 L 266.5 156.88 L 270 158.63 L 273.5 156.88 Z" fill="#000000" stroke="#000000" stroke-miterlimit="10" pointer-events="none"/><rect x="30" y="100" width="460" height="20" fill="#dae8fc" stroke="#6c8ebf" pointer-events="none"/><path d="M 47 100 L 47 120 M 473 100 L 473 120" fill="none" stroke="#6c8ebf" stroke-miterlimit="10" pointer-events="none"/><path d="M 181 54.58 L 196.78 54.58 L 196.78 50 L 211 57.5 L 196.78 65 L 196.78 60.42 L 181 60.42 Z M 156 60.42 L 160 60.42 L 160 54.58 L 156 54.58 Z M 164 60.42 L 176 60.42 L 176 54.58 L 164 54.58 Z" fill="#f8cecc" stroke="#b85450" stroke-miterlimit="10" transform="rotate(90,183.5,57.5)" pointer-events="none"/><path d="M 130 54.58 L 145.78 54.58 L 145.78 50 L 160 57.5 L 145.78 65 L 145.78 60.42 L 130 60.42 Z M 105 60.42 L 109 60.42 L 109 54.58 L 105 54.58 Z M 113 60.42 L 125 60.42 L 125 54.58 L 113 54.58 Z" fill="#f8cecc" stroke="#b85450" stroke-miterlimit="10" transform="rotate(90,132.5,57.5)" pointer-events="none"/><path d="M 232 54.58 L 247.78 54.58 L 247.78 50 L 262 57.5 L 247.78 65 L 247.78 60.42 L 232 60.42 Z M 207 60.42 L 211 60.42 L 211 54.58 L 207 54.58 Z M 215 60.42 L 227 60.42 L 227 54.58 L 215 54.58 Z" fill="#f8cecc" stroke="#b85450" stroke-miterlimit="10" transform="rotate(90,234.5,57.5)" pointer-events="none"/><path d="M 283 54.58 L 298.78 54.58 L 298.78 50 L 313 57.5 L 298.78 65 L 298.78 60.42 L 283 60.42 Z M 258 60.42 L 262 60.42 L 262 54.58 L 258 54.58 Z M 266 60.42 L 278 60.42 L 278 54.58 L 266 54.58 Z" fill="#f8cecc" stroke="#b85450" stroke-miterlimit="10" transform="rotate(90,285.5,57.5)" pointer-events="none"/><path d="M 385 54.58 L 400.78 54.58 L 400.78 50 L 415 57.5 L 400.78 65 L 400.78 60.42 L 385 60.42 Z M 360 60.42 L 364 60.42 L 364 54.58 L 360 54.58 Z M 368 60.42 L 380 60.42 L 380 54.58 L 368 54.58 Z" fill="#f8cecc" stroke="#b85450" stroke-miterlimit="10" transform="rotate(90,387.5,57.5)" pointer-events="none"/><path d="M 334 54.58 L 349.78 54.58 L 349.78 50 L 364 57.5 L 349.78 65 L 349.78 60.42 L 334 60.42 Z M 309 60.42 L 313 60.42 L 313 54.58 L 309 54.58 Z M 317 60.42 L 329 60.42 L 329 54.58 L 317 54.58 Z" fill="#f8cecc" stroke="#b85450" stroke-miterlimit="10" transform="rotate(90,336.5,57.5)" pointer-events="none"/><rect x="60" y="165" width="55" height="40" fill="#d5e8d4" stroke="#82b366" pointer-events="none"/><rect x="150" y="165" width="140" height="40" fill="#d5e8d4" stroke="#82b366" pointer-events="none"/><rect x="325" y="165" width="120" height="40" fill="#d5e8d4" stroke="#82b366" pointer-events="none"/><path d="M 365 181 L 381 181 L 381 165 L 389 165 L 389 181 L 405 181 L 405 189 L 389 189 L 389 205 L 381 205 L 381 189 L 365 189 Z" fill="#e51400" stroke="#b20000" stroke-miterlimit="10" transform="rotate(45,385,185)" pointer-events="none"/></g></svg>