<?xml version="1.0" encoding="UTF-8" standalone="no"?>
<svg
   xmlns:dc="http://purl.org/dc/elements/1.1/"
   xmlns:cc="http://creativecommons.org/ns#"
   xmlns:rdf="http://www.w3.org/1999/02/22-rdf-syntax-ns#"
   xmlns:svg="http://www.w3.org/2000/svg"
   xmlns="http://www.w3.org/2000/svg"
   xmlns:sodipodi="http://sodipodi.sourceforge.net/DTD/sodipodi-0.dtd"
   xmlns:inkscape="http://www.inkscape.org/namespaces/inkscape"
   version="1.1"
   width="522px"
   height="222px"
   viewBox="-0.5 -0.5 522 222"
   id="svg4537"
   inkscape:version="0.91 r13725"
   sodipodi:docname="np-mc-4.svg">
  <metadata
     id="metadata4613">
    <rdf:RDF>
      <cc:Work
         rdf:about="">
        <dc:format>image/svg+xml</dc:format>
        <dc:type
           rdf:resource="http://purl.org/dc/dcmitype/StillImage" />
        <dc:title></dc:title>
      </cc:Work>
    </rdf:RDF>
  </metadata>
  <sodipodi:namedview
     pagecolor="#ffffff"
     bordercolor="#666666"
     borderopacity="1"
     objecttolerance="10"
     gridtolerance="10"
     guidetolerance="10"
     inkscape:pageopacity="0"
     inkscape:pageshadow="2"
     inkscape:window-width="1443"
     inkscape:window-height="859"
     id="namedview4611"
     showgrid="false"
     inkscape:zoom="1.6245211"
     inkscape:cx="281.05676"
     inkscape:cy="70.042856"
     inkscape:window-x="0"
     inkscape:window-y="0"
     inkscape:window-maximized="0"
     inkscape:current-layer="svg4537" />
  <defs
     id="defs4539" />
  <circle
     style="fill:#f8cecc;stroke:#b85450"
     r="15"
     id="ellipse4547"
     pointer-events="none"
     cy="35"
     cx="40" />
  <circle
     style="fill:#f8cecc;stroke:#b85450"
     r="15"
     id="ellipse4549"
     pointer-events="none"
     cy="35"
     cx="185" />
  <circle
     style="fill:#f8cecc;stroke:#b85450"
     r="15"
     id="ellipse4553"
     pointer-events="none"
     cy="35"
     cx="330" />
  <circle
     style="fill:#d5e8d4;stroke:#82b366"
     r="15"
     id="ellipse4555"
     pointer-events="none"
     cy="185"
     cx="40" />
  <circle
     style="fill:#d5e8d4;stroke:#82b366"
     r="15"
     id="ellipse4557"
     pointer-events="none"
     cy="185"
     cx="185" />
  <circle
     style="fill:#d5e8d4;stroke:#82b366"
     r="15"
     id="ellipse4559"
     pointer-events="none"
     cy="185"
     cx="330" />
  <path
     style="fill:#dae8fc;stroke:#6c8ebf;stroke-miterlimit:10"
     inkscape:connector-curvature="0"
     id="path4561"
     pointer-events="none"
     stroke-miterlimit="10"
     d="m 42.58,95 0,34.71 3.42,0 -6,20.29 -6,-20.29 3.42,0 0,-34.71 z m -5.16,-25 0,4 5.16,0 0,-4 z m 0,8 0,12 5.16,0 0,-12 z" />
  <path
     style="fill:#dae8fc;stroke:#6c8ebf;stroke-miterlimit:10"
     inkscape:connector-curvature="0"
     id="path4563"
     pointer-events="none"
     stroke-miterlimit="10"
     d="m 187.58,95 0,34.71 3.42,0 -6,20.29 -6,-20.29 3.42,0 0,-34.71 z m -5.16,-25 0,4 5.16,0 0,-4 z m 0,8 0,12 5.16,0 0,-12 z" />
  <path
     style="fill:#dae8fc;stroke:#6c8ebf;stroke-miterlimit:10"
     inkscape:connector-curvature="0"
     id="path4565"
     pointer-events="none"
     stroke-miterlimit="10"
     d="m 333.58,95 0,34.71 3.42,0 -6,20.29 -6,-20.29 3.42,0 0,-34.71 z m -5.16,-25 0,4 5.16,0 0,-4 z m 0,8 0,12 5.16,0 0,-12 z" />
  <circle
     style="fill:#f8cecc;stroke:#b85450"
     r="15"
     id="ellipse4567"
     pointer-events="none"
     cy="30"
     cx="165" />
  <circle
     style="fill:#f8cecc;stroke:#b85450"
     r="15"
     id="ellipse4569"
     pointer-events="none"
     cy="25"
     cx="206" />
  <circle
     style="fill:#f8cecc;stroke:#b85450"
     r="15"
     id="ellipse4571"
     pointer-events="none"
     cy="50"
     cx="165" />
  <circle
     style="fill:#f8cecc;stroke:#b85450"
     r="15"
     id="ellipse4573"
     pointer-events="none"
     cy="30"
     cx="316" />
  <circle
     style="fill:#f8cecc;stroke:#b85450"
     r="15"
     id="ellipse4575"
     pointer-events="none"
     cy="25"
     cx="355" />
  <circle
     style="fill:#f8cecc;stroke:#b85450"
     r="15"
     id="ellipse4577"
     pointer-events="none"
     cy="50"
     cx="346" />
  <circle
     style="fill:#d5e8d4;stroke:#82b366"
     r="15"
     id="ellipse4579"
     pointer-events="none"
     cy="175"
     cx="315" />
  <circle
     style="fill:#d5e8d4;stroke:#82b366"
     r="15"
     id="ellipse4581"
     pointer-events="none"
     cy="175"
     cx="355" />
  <circle
     style="fill:#d5e8d4;stroke:#82b366"
     r="15"
     id="ellipse4583"
     pointer-events="none"
     cy="200"
     cx="346" />
  <circle
     style="fill:#d5e8d4;stroke:#82b366"
     r="15"
     id="ellipse4585"
     pointer-events="none"
     cy="195"
     cx="315" />
</svg>
